<?xml version="1.0" encoding="UTF-8"?>
<svg width="420" height="620" viewBox="0 0 420 620" xmlns="http://www.w3.org/2000/svg">
  <defs>
    <linearGradient id="g1" x1="0%" y1="0%" x2="100%" y2="100%">
      <stop offset="0%" style="stop-color:#4527A0;stop-opacity:1"/>
      <stop offset="100%" style="stop-color:#4527A0;stop-opacity:0.85"/>
    </linearGradient>
    <filter id="shadow1">
      <feDropShadow dx="0" dy="4" stdDeviation="8" flood-color="#000" flood-opacity="0.12"/>
    </filter>
    <clipPath id="card1">
      <rect x="4" y="4" width="412" height="612" rx="20"/>
    </clipPath>
  </defs>

  <!-- Shadow -->
  <rect x="8" y="8" width="412" height="612" rx="20" fill="rgba(0,0,0,0.08)"/>

  <!-- Card bg -->
  <rect x="4" y="4" width="412" height="612" rx="20" fill="#FAFAFA"/>

  <!-- Color band -->
  <rect x="4" y="4" width="412" height="310" rx="20" fill="url(#g1)" clip-path="url(#card1)"/>
  <rect x="4" y="290" width="412" height="30" fill="#4527A0" clip-path="url(#card1)"/>

  <!-- Piece # badge -->
  <circle cx="40" cy="40" r="24" fill="rgba(255,255,255,0.2)"/>
  <text x="40" y="46" font-family="Arial,sans-serif" font-size="13" font-weight="bold" fill="white" text-anchor="middle">#001</text>

  <!-- Category badge -->
  <rect x="298" y="18" width="118" height="24" rx="12" fill="rgba(255,255,255,0.2)"/>
  <text x="357" y="33" font-family="Arial,sans-serif" font-size="9" fill="white" text-anchor="middle" font-weight="bold" letter-spacing="0.5">FOCUS</text>

  <!-- Hex icon -->
  <polygon points="210,68 240,85 240,118 210,135 180,118 180,85" fill="rgba(255,255,255,0.2)" stroke="rgba(255,255,255,0.45)" stroke-width="1.5"/>
  <text x="210" y="110" font-family="Arial,sans-serif" font-size="28" text-anchor="middle">🎯</text>

  <!-- Title -->
  
    <text x="210" y="185" font-family="Arial, sans-serif" font-size="21" font-weight="bold" fill="white" text-anchor="middle">Isshin — One Mind</text>

  <!-- Subtitle -->
  
    <text x="210" y="229" font-family="Arial, sans-serif" font-size="12" fill="rgba(255,255,255,0.85)" text-anchor="middle" font-style="italic">The 300-year-old Japanese</text>
    <text x="210" y="247" font-family="Arial, sans-serif" font-size="12" fill="rgba(255,255,255,0.85)" text-anchor="middle" font-style="italic">focus method that rewires your</text>

  <!-- Divider -->
  <line x1="30" y1="330" x2="390" y2="330" stroke="#E0E0E0" stroke-width="1"/>

  <!-- Activities label -->
  <text x="34" y="352" font-family="Arial,sans-serif" font-size="9" font-weight="bold" fill="#4527A0" letter-spacing="1">PRACTICE ACTIVITIES</text>

  <!-- Activities -->
  
    <rect x="34" y="365" width="14" height="14" rx="3" fill="none" stroke="#4527A0" stroke-width="1.5"/>
    <text x="56" y="378" font-family="Arial, sans-serif" font-size="11" fill="#333333">Choose ONE task before sitting down — no swit…</text>
    <rect x="34" y="395" width="14" height="14" rx="3" fill="none" stroke="#4527A0" stroke-width="1.5"/>
    <text x="56" y="408" font-family="Arial, sans-serif" font-size="11" fill="#333333">Set a 25-min timer and close every other tab</text>
    <rect x="34" y="425" width="14" height="14" rx="3" fill="none" stroke="#4527A0" stroke-width="1.5"/>
    <text x="56" y="438" font-family="Arial, sans-serif" font-size="11" fill="#333333">Write distracting thoughts on paper instead o…</text>
    <rect x="34" y="455" width="14" height="14" rx="3" fill="none" stroke="#4527A0" stroke-width="1.5"/>
    <text x="56" y="468" font-family="Arial, sans-serif" font-size="11" fill="#333333">Take a 5-min walk or stretch after each block</text>
    <rect x="34" y="485" width="14" height="14" rx="3" fill="none" stroke="#4527A0" stroke-width="1.5"/>
    <text x="56" y="498" font-family="Arial, sans-serif" font-size="11" fill="#333333">Log how many unbroken Isshin blocks you compl…</text>
    <rect x="34" y="515" width="14" height="14" rx="3" fill="none" stroke="#4527A0" stroke-width="1.5"/>
    <text x="56" y="528" font-family="Arial, sans-serif" font-size="11" fill="#333333">Celebrate every unbroken block — small wins c…</text>

  <!-- Footer -->
  <text x="210" y="606" font-family="Arial,sans-serif" font-size="8" fill="#BDBDBD" text-anchor="middle">PUZZLE4LIFE™  ·  ISSHIN-ONE-MIND</text>
</svg>